<svg xmlns="http://www.w3.org/2000/svg" font-family="-apple-system, system-ui, sans-serif" viewBox="0 0 800 200"><defs><marker id="arrowhead" markerHeight="7" markerWidth="10" orient="auto" refX="10" refY="3.5"><path fill="#666" d="m0 0 10 3.5L0 7z"/></marker><style>.box{fill:#1a1a1a;stroke:#3d9e6a;stroke-width:2}.label,.sub{fill:#e0e0e0;font-size:13px;text-anchor:middle}.sub{fill:#888;font-size:10px}.arrow{stroke:#666;stroke-width:2;fill:none;marker-end:url(#arrowhead)}</style></defs><path fill="#111" d="M0 0h800v200H0z"/><rect width="110" height="50" x="20" y="75" class="box" rx="8"/><text x="75" y="97" class="label">Browser</text><text x="75" y="113" class="sub">PWA</text><path d="M132 100h26" class="arrow"/><rect width="140" height="50" x="160" y="75" class="box" rx="8"/><text x="230" y="97" class="label">React App</text><text x="230" y="113" class="sub">Vite + React Router</text><path d="m302 88 36-48" class="arrow"/><path d="m302 95 36-15" class="arrow"/><path d="m302 105 36 15" class="arrow"/><rect width="140" height="38" x="340" y="18" class="box" rx="8"/><text x="410" y="34" class="label">Drug Tracker</text><text x="410" y="48" class="sub">log + journal</text><rect width="140" height="38" x="340" y="63" class="box" rx="8"/><text x="410" y="79" class="label">Check-in Engine</text><text x="410" y="93" class="sub">mood + insights</text><rect width="140" height="38" x="340" y="108" class="box" rx="8"/><text x="410" y="124" class="label">Substances Wiki</text><text x="410" y="138" class="sub">20+ substances</text><path d="m482 37 66 43" class="arrow"/><path d="m482 82 66 8" class="arrow"/><path d="m482 127 66-22" class="arrow"/><rect width="200" height="70" x="550" y="55" class="box" rx="8"/><text x="650" y="83" class="label">localStorage</text><text x="650" y="99" class="sub">dose:log</text><text x="650" y="113" class="sub">dose:custom_substances</text></svg>