<svg xmlns="http://www.w3.org/2000/svg" style="font-family:-apple-system,BlinkMacSystemFont,&quot;SF Pro Text&quot;,sans-serif;background:#fff" viewBox="0 0 800 520"><defs><marker id="a" markerHeight="6" markerWidth="8" orient="auto" refX="8" refY="3"><path fill="#86868b" d="m0 0 8 3-8 3"/></marker></defs><text x="400" y="32" style="font-size:18px;font-weight:600;fill:#1d1d1f" text-anchor="middle">Dose iOS Architecture</text><rect width="720" height="100" x="40" y="60" rx="12" style="fill:#f5f5f7;stroke:#d2d2d7;stroke-width:1"/><text x="60" y="82" style="font-size:11px;font-weight:600;fill:#86868b;letter-spacing:.5px">VIEWS</text><rect width="90" height="52" x="60" y="92" rx="8" style="fill:#fff;stroke:#d2d2d7;stroke-width:1"/><text x="105" y="122" style="font-size:11px;fill:#1d1d1f" text-anchor="middle">Dashboard</text><rect width="80" height="52" x="160" y="92" rx="8" style="fill:#fff;stroke:#d2d2d7;stroke-width:1"/><text x="200" y="122" style="font-size:11px;fill:#1d1d1f" text-anchor="middle">Library</text><rect width="80" height="52" x="250" y="92" rx="8" style="fill:#fff;stroke:#d2d2d7;stroke-width:1"/><text x="290" y="122" style="font-size:11px;fill:#1d1d1f" text-anchor="middle">History</text><rect width="80" height="52" x="340" y="92" rx="8" style="fill:#fff;stroke:#d2d2d7;stroke-width:1"/><text x="380" y="122" style="font-size:11px;fill:#1d1d1f" text-anchor="middle">Insights</text><rect width="70" height="52" x="430" y="92" rx="8" style="fill:#fff;stroke:#d2d2d7;stroke-width:1"/><text x="465" y="122" style="font-size:11px;fill:#1d1d1f" text-anchor="middle">Body</text><rect width="100" height="52" x="510" y="92" rx="8" style="fill:#fff;stroke:#d2d2d7;stroke-width:1"/><text x="560" y="122" style="font-size:11px;fill:#1d1d1f" text-anchor="middle">Interactions</text><rect width="60" height="52" x="620" y="92" rx="8" style="fill:#fff;stroke:#d2d2d7;stroke-width:1"/><text x="650" y="122" style="font-size:11px;fill:#1d1d1f" text-anchor="middle">Log</text><rect width="56" height="52" x="690" y="92" rx="8" style="fill:#fff;stroke:#d2d2d7;stroke-width:1"/><text x="718" y="122" style="font-size:11px;fill:#1d1d1f" text-anchor="middle">Detail</text><path marker-end="url(#a)" d="M400 160v40" style="stroke:#86868b;stroke-width:1.5"/><rect width="720" height="90" x="40" y="210" rx="12" style="fill:#f5f5f7;stroke:#d2d2d7;stroke-width:1"/><text x="60" y="232" style="font-size:11px;font-weight:600;fill:#86868b;letter-spacing:.5px">SERVICES</text><rect width="140" height="44" x="60" y="242" rx="8" style="fill:#0071e3;stroke:none"/><text x="130" y="268" style="font-size:12px;fill:#fff;font-weight:500" text-anchor="middle">DataStore</text><rect width="160" height="44" x="220" y="242" rx="8" style="fill:#0071e3;stroke:none"/><text x="300" y="268" style="font-size:12px;fill:#fff;font-weight:500" text-anchor="middle">HealthKitService</text><rect width="170" height="44" x="400" y="242" rx="8" style="fill:#0071e3;stroke:none"/><text x="485" y="268" style="font-size:12px;fill:#fff;font-weight:500" text-anchor="middle">InteractionEngine</text><rect width="150" height="44" x="590" y="242" rx="8" style="fill:#0071e3;stroke:none"/><text x="665" y="268" style="font-size:12px;fill:#fff;font-weight:500" text-anchor="middle">CSVExporter</text><path marker-end="url(#a)" d="M250 300v40" style="stroke:#86868b;stroke-width:1.5"/><rect width="440" height="90" x="40" y="350" rx="12" style="fill:#f5f5f7;stroke:#d2d2d7;stroke-width:1"/><text x="60" y="372" style="font-size:11px;font-weight:600;fill:#86868b;letter-spacing:.5px">MODELS</text><rect width="95" height="44" x="60" y="382" rx="8" style="fill:#fff;stroke:#d2d2d7;stroke-width:1"/><text x="107" y="408" style="font-size:11px;fill:#1d1d1f" text-anchor="middle">Substance</text><rect width="95" height="44" x="165" y="382" rx="8" style="fill:#fff;stroke:#d2d2d7;stroke-width:1"/><text x="212" y="408" style="font-size:11px;fill:#1d1d1f" text-anchor="middle">DoseEntry</text><rect width="100" height="44" x="270" y="382" rx="8" style="fill:#fff;stroke:#d2d2d7;stroke-width:1"/><text x="320" y="408" style="font-size:11px;fill:#1d1d1f" text-anchor="middle">HealthEntry</text><rect width="86" height="44" x="380" y="382" rx="8" style="fill:#fff;stroke:#d2d2d7;stroke-width:1"/><text x="423" y="408" style="font-size:11px;fill:#1d1d1f" text-anchor="middle">Biometric</text><rect width="260" height="90" x="500" y="350" rx="12" style="fill:#f5f5f7;stroke:#d2d2d7;stroke-width:1"/><text x="520" y="372" style="font-size:11px;font-weight:600;fill:#86868b;letter-spacing:.5px">STORAGE</text><rect width="100" height="44" x="520" y="382" rx="8" style="fill:#34c759;stroke:none"/><text x="570" y="408" style="font-size:12px;fill:#fff;font-weight:500" text-anchor="middle">UserDefaults</text><rect width="100" height="44" x="640" y="382" rx="8" style="fill:#ff3b30;stroke:none"/><text x="690" y="408" style="font-size:12px;fill:#fff;font-weight:500" text-anchor="middle">HealthKit</text><path marker-end="url(#a)" d="M130 286v44h440v50" style="stroke:#86868b;stroke-width:1.5;fill:none"/><path marker-end="url(#a)" d="M300 286v32h390v62" style="stroke:#86868b;stroke-width:1.5;fill:none"/><rect width="200" height="44" x="40" y="460" rx="8" style="fill:#f5f5f7;stroke:#d2d2d7;stroke-width:1"/><text x="140" y="486" style="font-size:11px;fill:#1d1d1f" text-anchor="middle">SubstanceDatabase (200+)</text><path marker-end="url(#a)" d="M140 440v18" style="stroke:#86868b;stroke-width:1.5"/></svg>